<?xml version="1.0" encoding="UTF-8" standalone="no"?>
<!-- Created with Inkscape (http://www.inkscape.org/) -->

<svg
   xmlns:dc="http://purl.org/dc/elements/1.1/"
   xmlns:cc="http://creativecommons.org/ns#"
   xmlns:rdf="http://www.w3.org/1999/02/22-rdf-syntax-ns#"
   xmlns:svg="http://www.w3.org/2000/svg"
   xmlns="http://www.w3.org/2000/svg"
   xmlns:sodipodi="http://sodipodi.sourceforge.net/DTD/sodipodi-0.dtd"
   xmlns:inkscape="http://www.inkscape.org/namespaces/inkscape"
   width="500"
   height="500"
   viewBox="0 0 500 500.00001"
   id="svg3476"
   version="1.1"
   inkscape:version="0.48.5 r10040"
   sodipodi:docname="logo-css3.svg">
  <defs
     id="defs3478" />
  <sodipodi:namedview
     id="base"
     pagecolor="#ffffff"
     bordercolor="#666666"
     borderopacity="1.0"
     inkscape:pageopacity="0.0"
     inkscape:pageshadow="2"
     inkscape:zoom="0.7"
     inkscape:cx="479.34202"
     inkscape:cy="153.21985"
     inkscape:document-units="px"
     inkscape:current-layer="layer1"
     showgrid="false"
     fit-margin-top="0"
     fit-margin-left="0"
     fit-margin-right="0"
     fit-margin-bottom="0"
     inkscape:window-width="3440"
     inkscape:window-height="1377"
     inkscape:window-x="1912"
     inkscape:window-y="-8"
     inkscape:window-maximized="1"
     inkscape:showpageshadow="false"
     showborder="true" />
  <metadata
     id="metadata3481">
    <rdf:RDF>
      <cc:Work
         rdf:about="">
        <dc:format>image/svg+xml</dc:format>
        <dc:type
           rdf:resource="http://purl.org/dc/dcmitype/StillImage" />
        <dc:title></dc:title>
      </cc:Work>
    </rdf:RDF>
  </metadata>
  <g
     inkscape:label="Calque 1"
     inkscape:groupmode="layer"
     id="layer1"
     transform="translate(-193.633,-288.36217)">
    <rect
       style="fill:#ffffff;fill-opacity:0;stroke:none"
       id="rect3059"
       width="500"
       height="500"
       x="193.633"
       y="288.36218" />
    <g
       id="g3917"
       transform="matrix(0.8936545,0,0,0.8936545,514.43202,73.848853)">
      <path
         inkscape:connector-curvature="0"
         id="path118"
         d="m -276.54944,349.3726 0.0625,5 c 0.0344,2.75 8.00162,93.80066 17.70507,202.334 l 17.64258,197.33398 79.29492,22.20117 c 43.61211,12.21062 80.194929,22.26265 81.294929,22.33985 1.1,0.0771 38.16591,-9.87392 82.3691399,-22.11329 70.8704401,-19.6232 80.4378601,-22.57875 80.9453101,-25.00781 0.707,-3.38418 35.412551,-394.89906 35.376951,-399.0879 l -0.0254,-3 H -79.217411 z"
         style="fill:#ffffff;stroke-width:1.33333337" />
      <path
         sodipodi:nodetypes="sccsssccsscsccccccccsscscssscsscccsccsscccc"
         style="fill:#eaebec;stroke-width:1.33333337"
         d="m -161.21649,777.5699 -80,-22.36163 -1.04545,-5.91717 c -0.92931,-5.25978 -35.62122,-392.73431 -35.62122,-397.85393 0,-1.85291 20.25565,-2.06327 198.666669,-2.06327 188.323311,0 198.665871,0.12147 198.651331,2.33333 -0.0628,9.55335 -35.971641,402.15859 -36.854091,402.94003 -1.11511,0.98746 -155.95653,44.12552 -161.13057,44.89017 -1.46667,0.21676 -38.666669,-9.66863 -82.666669,-21.96753 z m 132.444359,-79.01302 c 26.8889299,-7.41602 49.27699,-13.86602 49.75121,-14.33333 0.47423,-0.46731 3.62071,-32.34964 6.99216,-70.84964 3.37146,-38.5 6.47022,-72.55 6.88612,-75.66667 l 0.75622,-5.66666 h -58.08171 -58.08169 v 24.66666 24.66667 h 31.35873 31.35873 l -0.6238,3 c -0.34309,1.65 -1.67673,15.82935 -2.96364,31.50967 -1.36361,16.6149 -2.98028,29.1501 -3.87486,30.04469 -0.84427,0.84427 -13.62206,4.75671 -28.3951,8.69431 l -26.86006,7.15929 v 25.12935 c 0,17.15185 0.45852,25.12936 1.44436,25.12936 0.7944,0 23.4444,-6.06767 50.33333,-13.4837 z m 63.62125,-197.5163 c -0.88136,-6.53338 -8.73228,-94.16284 -8.73228,-97.46697 0,-2.00692 -4.61566,-2.19971 -52.66666,-2.19971 h -52.66667 v 25.79372 25.79373 l 23.66667,0.91218 c 13.01666,0.50169 26.71548,1.26522 30.4418,1.69674 l 6.77512,0.78459 1.64474,20.17619 c 0.9046,11.0969 1.98248,22.42619 2.39528,25.17619 l 0.75055,5 h 24.57795 24.57796 z"
         id="path88"
         inkscape:connector-curvature="0" />
      <path
         sodipodi:nodetypes="ccsccccccscccccscscsccsssccscscssccccsccscsscccccccc"
         style="fill:#f0be25;stroke-width:1.33333337"
         d="m -161.84456,776.24168 -79.29473,-22.2011 -17.64265,-197.33334 C -268.4854,448.1739 -276.45277,357.1239 -276.48721,354.3739 l -0.0626,-5 H -79.216491 118.11684 l 0.0256,3 c 0.0356,4.18884 -34.670721,395.7038 -35.377721,399.08798 -0.50745,2.42906 -10.07454,5.38483 -80.9449801,25.00803 -44.2032299,12.23937 -81.2695099,22.19028 -82.3695099,22.11315 -1.1,-0.0772 -37.682629,-10.13076 -81.294729,-22.34138 z m 133.132639,-76.74193 c 27.4108399,-7.62076 50.2269,-14.48533 50.70234,-15.2546 0.47542,-0.76927 3.75001,-34.28 7.27684,-74.46829 3.52682,-40.18828 6.70121,-74.11962 7.05418,-75.40295 0.60635,-2.20456 -4.05766,-2.33333 -84.51377,-2.33333 h -85.155529 l 3.62565,-38.33334 c 1.99411,-21.08334 3.67367,-38.38793 3.73235,-38.45465 0.0587,-0.0667 12.5567,-0.46537 27.773369,-0.8859 24.95099,-0.68958 76.40477,1.30088 78.12613,3.02224 0.64308,0.64308 4.87387,42.15038 4.87387,47.81646 0,2.79381 0.37699,2.83519 25.83621,2.83519 h 25.83623 l -0.60884,-5.66667 c -0.33487,-3.11667 -2.52341,-27.26668 -4.86345,-53.66668 l -4.25462,-48 -99.63942,-0.34182 c -79.268709,-0.27194 -99.641679,6.5e-4 -99.650379,1.33333 -0.007,0.92135 -0.58701,6.77516 -1.29109,13.00849 -1.70375,15.08355 -14.69797,160.82252 -14.69797,164.8476 v 3.15241 h 84.78386 84.783869 l -0.75581,5 c -0.4157,2.75 -1.73364,16.7 -2.92876,31 -1.19512,14.3 -2.55774,26.3694 -3.02806,26.82091 -1.24218,1.19249 -51.11936,14.51707 -54.22958,14.48731 -1.44404,-0.0138 -14.32552,-3.22779 -28.625519,-7.14216 l -26,-7.11703 -0.95343,-11.19119 c -0.52439,-6.15514 -1.32215,-14.94117 -1.7728,-19.5245 l -0.81936,-8.33334 h -25.2272 -25.22721 l 0.0559,5 c 0.1044,9.35062 6.16783,72.33478 7.04834,73.21528 1.01833,1.01835 97.912239,28.25511 100.895819,28.36171 1.1,0.0393 24.42706,-6.16372 51.83791,-13.78448 z"
         id="path80"
         inkscape:connector-curvature="0" />
      <path
         sodipodi:nodetypes="ccsccccccscccscccccccscsscccscscsscccccscsssscscccccs"
         style="fill:#e4a126;stroke-width:1.33333337"
         d="m -161.84456,776.24168 -79.29473,-22.2011 -17.64265,-197.33334 C -268.4854,448.1739 -276.45277,357.1239 -276.48721,354.3739 l -0.0626,-5 H -79.216491 118.11684 l 0.0256,3 c 0.0356,4.18884 -34.670721,395.7038 -35.377721,399.08798 -0.50745,2.42906 -10.07454,5.38483 -80.9449801,25.00803 -44.2032299,12.23937 -81.2695099,22.19028 -82.3695099,22.11315 -1.1,-0.0772 -37.682629,-10.13076 -81.294729,-22.34138 z m 147.874389,-29.70081 c 34.88119,-9.62484 64.07555,-18.17484 64.87636,-19 1.24625,-1.28417 31.37211,-331.45422 31.25089,-342.5003 l -0.0402,-3.66667 H 1.4502189 -79.216451 v 9.33333 9.33334 h -46.666709 c -36.43861,0 -46.66906,0.36529 -46.6776,1.66666 -0.007,0.91667 -0.58701,6.76667 -1.29109,13 -1.70375,15.08355 -14.69797,160.82252 -14.69797,164.8476 v 3.15241 h 54.66666 54.666669 v 38.66667 c 0,30.05784 -0.37107,38.66108 -1.66667,38.64155 -0.91666,-0.0139 -13.36666,-3.22779 -27.666659,-7.14216 l -26,-7.11703 -0.95343,-11.19119 c -0.52439,-6.15514 -1.32215,-14.94117 -1.7728,-19.5245 l -0.81936,-8.33334 h -25.2272 -25.22721 l 0.0559,5 c 0.15972,14.30148 6.3465,72.67926 7.79746,73.576 0.8819,0.54504 24.07569,7.2095 51.54174,14.80988 l 49.938229,13.81888 v 25.06428 c 0,13.78536 0.41084,25.0643 0.91299,25.0643 0.50213,0 29.45213,-7.87487 64.33333,-17.49971 z M -129.8627,494.06555 c 1.91684,-20.88628 3.7464,-38.21142 4.06569,-38.50033 0.31928,-0.28889 10.93052,-0.81163 23.58052,-1.16161 l 22.999999,-0.63635 v 39.13666 39.13666 h -27.065689 -27.06568 z"
         id="path78"
         inkscape:connector-curvature="0" />
      <path
         style="fill:#0e0e0f;stroke-width:1.33333337"
         d="M -151.21649,302.04057 V 289.3739 h 18 18 v -24.66666 -24.66667 h 12.66667 12.666659 v 37.33333 37.33333 h -30.666659 -30.66667 z m 73.333329,2.66667 v -10 h 16.66667 c 9.16667,0 16.66667,-0.33886 16.66667,-0.75302 0,-0.41416 -7.5,-8.88146 -16.66667,-18.81622 l -16.66667,-18.0632 v -8.51712 -8.51711 h 34.66667 34.6666699 v 9.95896 9.95896 l -16.2744999,0.37437 -16.27449,0.37438 16.94116,18.24428 16.9411599,18.24427 v 8.75572 8.75572 h -35.3333299 -35.33334 z"
         id="path76"
         inkscape:connector-curvature="0" />
    </g>
  </g>
</svg>
