<?xml version="1.0" encoding="UTF-8" standalone="no"?>
<!-- Created with Inkscape (http://www.inkscape.org/) -->

<svg
   xmlns:dc="http://purl.org/dc/elements/1.1/"
   xmlns:cc="http://creativecommons.org/ns#"
   xmlns:rdf="http://www.w3.org/1999/02/22-rdf-syntax-ns#"
   xmlns:svg="http://www.w3.org/2000/svg"
   xmlns="http://www.w3.org/2000/svg"
   xmlns:sodipodi="http://sodipodi.sourceforge.net/DTD/sodipodi-0.dtd"
   xmlns:inkscape="http://www.inkscape.org/namespaces/inkscape"
   width="500"
   height="500"
   viewBox="0 0 500 500.00001"
   id="svg3476"
   version="1.1"
   inkscape:version="0.48.5 r10040"
   sodipodi:docname="logo-js.svg">
  <defs
     id="defs3478" />
  <sodipodi:namedview
     id="base"
     pagecolor="#ffffff"
     bordercolor="#666666"
     borderopacity="1.0"
     inkscape:pageopacity="0.0"
     inkscape:pageshadow="2"
     inkscape:zoom="0.7"
     inkscape:cx="256.48488"
     inkscape:cy="153.21985"
     inkscape:document-units="px"
     inkscape:current-layer="layer1"
     showgrid="false"
     fit-margin-top="0"
     fit-margin-left="0"
     fit-margin-right="0"
     fit-margin-bottom="0"
     inkscape:window-width="3440"
     inkscape:window-height="1377"
     inkscape:window-x="1912"
     inkscape:window-y="-8"
     inkscape:window-maximized="1"
     inkscape:showpageshadow="false"
     showborder="true" />
  <metadata
     id="metadata3481">
    <rdf:RDF>
      <cc:Work
         rdf:about="">
        <dc:format>image/svg+xml</dc:format>
        <dc:type
           rdf:resource="http://purl.org/dc/dcmitype/StillImage" />
        <dc:title></dc:title>
      </cc:Work>
    </rdf:RDF>
  </metadata>
  <g
     inkscape:label="Calque 1"
     inkscape:groupmode="layer"
     id="layer1"
     transform="translate(-193.633,-288.36217)">
    <rect
       style="fill:#ffffff;fill-opacity:0;stroke:none"
       id="rect3059"
       width="500"
       height="500"
       x="193.633"
       y="288.36218" />
    <g
       id="g3831"
       transform="matrix(1.7205189,0,0,1.7205189,-585.09746,-424.76837)">
      <path
         style="fill:#10aa50;fill-opacity:1"
         id="path4524"
         d="m 660.81665,530.13574 c -15.31,-67.54 -47.22,-85.52 -55.36,-98.23 a 144.57,144.57 0 0 1 -8.9,-17.42 c -0.43,6 -1.22,9.78 -6.32001,14.33 -10.24,9.13 -53.73,44.57 -57.39,121.31 -3.41,71.55 52.6,115.67001 60,120.23001 5.69001,2.8 12.62001,0.06 16.00001,-2.51 27,-18.53001 63.89,-67.93001 52,-137.71001"
         class="cls-1"
         inkscape:connector-curvature="0" />
      <path
         style="fill:#b8c4c2;fill-opacity:1"
         id="path4526"
         d="m 598.87665,632.25574 c -1.41,17.71 -2.42,28 -6.00001,38.12001 0,0 2.35001,16.86 4.00001,34.72 h 5.84 a 324.73001,324.73001 0 0 1 6.37,-37.39 c -7.56,-3.72001 -9.92,-19.91001 -10.21,-35.45001 z"
         class="cls-2"
         inkscape:connector-curvature="0" />
      <path
         style="fill:#12924f;fill-opacity:1"
         id="path4528"
         d="m 609.07665,667.71575 v 0 c -7.64,-3.53001 -9.85,-20.06001 -10.19,-35.46001 a 725.83001,725.83001 0 0 0 1.65,-76.35 c -0.4,-13.36 0.19,-123.74 -3.29,-139.9 a 134.29,134.29 0 0 0 8.21,15.89 c 8.14,12.72 40.06,30.7 55.36,98.24 11.92,69.66 -24.77,118.93 -51.74,137.58001 z"
         class="cls-3"
         inkscape:connector-curvature="0" />
    </g>
  </g>
</svg>
